<?xml version="1.0" standalone="no"?><!DOCTYPE svg PUBLIC "-//W3C//DTD SVG 1.1//EN" "http://www.w3.org/Graphics/SVG/1.1/DTD/svg11.dtd"><svg t="1690448318498" class="icon" viewBox="0 0 1024 1024" version="1.1" xmlns="http://www.w3.org/2000/svg" p-id="129524" xmlns:xlink="http://www.w3.org/1999/xlink" width="128" height="128"><path d="M814.423324 1024H205.038834c-77.173178 0-139.956618-63.619359-139.956618-141.827483V141.827483c0-78.208124 62.78344-141.827483 139.956618-141.827483h386.701807l364.649485 340.487464-2.010184 541.764664c-0.039806 78.158367-62.813294 141.747872-139.956618 141.747872z m-609.38449-960.310982c-42.054655 0-76.2676 35.048863-76.2676 78.138465v740.345034c0 43.07965 34.212945 78.138465 76.2676 78.138465H814.423324c42.054655 0 76.2676-35.048863 76.267599-78.138465v-0.119417l1.900719-514.000233L566.623285 63.689018H205.038834z" fill="#34a853" p-id="129525"></path><path d="M766.009718 638.064451h-527.424684c-17.58414 0-31.844509-14.260369-31.844509-31.844509s14.260369-31.844509 31.844509-31.84451h527.424684c17.58414 0 31.844509 14.260369 31.844509 31.84451s-14.260369 31.844509-31.844509 31.844509zM770.487852 826.962099h-536.380952c-17.58414 0-31.844509-14.260369-31.844509-31.844509s14.260369-31.844509 31.844509-31.844509h536.380952c17.58414 0 31.844509 14.260369 31.84451 31.844509s-14.260369 31.844509-31.84451 31.844509zM924.764548 389.100097H671.929096c-78.446958 0-142.275296-63.828338-142.275296-142.275296V33.804937c0-17.58414 14.260369-31.844509 31.844509-31.844509s31.844509 14.260369 31.844509 31.844509v213.019864c0 43.328435 35.247891 78.586278 78.586278 78.586278h252.825501c17.58414 0 31.844509 14.260369 31.844509 31.844509s-14.250418 31.844509-31.834558 31.844509z" fill="#34a853" p-id="129526"></path></svg>