<svg t="1694685225290" class="icon" viewBox="0 0 1024 1024" version="1.1" xmlns="http://www.w3.org/2000/svg" p-id="848" width="200" height="200"><path d="M544 245.333333v533.333334a10.666667 10.666667 0 0 1-10.666667 10.666666h-42.666666a10.666667 10.666667 0 0 1-10.666667-10.666666V245.333333a10.666667 10.666667 0 0 1 10.666667-10.666666h42.666666a10.666667 10.666667 0 0 1 10.666667 10.666666z" fill="#515151" p-id="849"></path><path d="M789.333333 490.666667v42.666666a10.666667 10.666667 0 0 1-10.666666 10.666667H245.333333a10.666667 10.666667 0 0 1-10.666666-10.666667v-42.666666a10.666667 10.666667 0 0 1 10.666666-10.666667h533.333334a10.666667 10.666667 0 0 1 10.666666 10.666667z" fill="#515151" p-id="850"></path></svg>