<?xml version="1.0" standalone="no"?><!DOCTYPE svg PUBLIC "-//W3C//DTD SVG 1.1//EN" "http://www.w3.org/Graphics/SVG/1.1/DTD/svg11.dtd"><svg t="1689904503104" class="icon" viewBox="0 0 1024 1024" version="1.1" xmlns="http://www.w3.org/2000/svg" p-id="42964" xmlns:xlink="http://www.w3.org/1999/xlink" width="128" height="128"><path d="M896 256c35.264 0 64 28.736 64 64v576c0 35.264-28.736 64-64 64H128c-35.264 0-64-28.736-64-64V320c0-35.264 28.736-64 64-64h768m0-64H128A128 128 0 0 0 0 320v576a128 128 0 0 0 128 128h768a128 128 0 0 0 128-128V320a128 128 0 0 0-128-128z" p-id="42965" fill="#34a853"></path><path d="M1024 544a32 32 0 0 1-32 32H32a32 32 0 0 1 0-64h960a32 32 0 0 1 32 32z" p-id="42966" fill="#34a853"></path><path d="M512 640a32 32 0 0 1-32-32V480a32 32 0 0 1 64 0v128a32 32 0 0 1-32 32z m320-416h-64v-64c0-52.928-43.072-96-96-96H352c-52.928 0-96 43.072-96 96v64h-64v-64C192 71.808 263.808 0 352 0h320c88.192 0 160 71.808 160 160v64z" p-id="42967" fill="#34a853"></path></svg>