<?xml version="1.0" standalone="no"?><!DOCTYPE svg PUBLIC "-//W3C//DTD SVG 1.1//EN" "http://www.w3.org/Graphics/SVG/1.1/DTD/svg11.dtd"><svg t="1689904200642" class="icon" viewBox="0 0 1024 1024" version="1.1" xmlns="http://www.w3.org/2000/svg" p-id="26353" xmlns:xlink="http://www.w3.org/1999/xlink" width="128" height="128"><path d="M851.552 890.88 172.448 890.88c-74.592 0-135.296-60.672-135.296-135.296L37.152 370.752c0-74.624 60.672-135.328 135.296-135.328l132.16 0L302.912 195.904c0-34.624 28.192-62.816 62.816-62.816l302.016 0c29.408 0 53.312 23.904 53.312 53.312l0 49.024 130.464 0c74.592 0 135.296 60.672 135.296 135.328l0 384.832C986.816 830.208 926.144 890.88 851.552 890.88zM172.448 283.456c-48.128 0-87.296 39.168-87.296 87.328l0 384.832c0 48.128 39.168 87.296 87.296 87.296l679.104 0c48.128 0 87.296-39.168 87.296-87.296L938.848 370.752c0-48.16-39.168-87.328-87.296-87.328L716.8 283.424c-24.096 0-43.712-19.616-43.712-43.712L673.088 186.4c0-2.944-2.368-5.312-5.312-5.312l-302.016 0c-8.16 0-14.816 6.656-14.816 14.816L350.944 237.12c0 25.536-20.768 46.304-46.304 46.304L172.448 283.424zM512 755.84c-107.04 0-194.08-87.072-194.08-194.08S404.992 367.68 512 367.68s194.08 87.072 194.08 194.08S619.04 755.84 512 755.84zM512 415.68c-80.576 0-146.08 65.536-146.08 146.08S431.456 707.84 512 707.84s146.08-65.536 146.08-146.08S592.576 415.68 512 415.68zM816.8 438.016c-25.568 0-46.336-20.768-46.336-46.336s20.768-46.336 46.336-46.336 46.336 20.768 46.336 46.336S842.368 438.016 816.8 438.016zM816.8 390.016l-1.664 1.664c0 0.896 0.736 1.664 1.664 1.664L816.8 390.016z" fill="#34a853" p-id="26354"></path></svg>