<?xml version="1.0" standalone="no"?><!DOCTYPE svg PUBLIC "-//W3C//DTD SVG 1.1//EN" "http://www.w3.org/Graphics/SVG/1.1/DTD/svg11.dtd"><svg t="1689904574577" class="icon" viewBox="0 0 1026 1024" version="1.1" xmlns="http://www.w3.org/2000/svg" p-id="44556" xmlns:xlink="http://www.w3.org/1999/xlink" width="128.25" height="128"><path d="M413.567719 473.602598l135.119312 133.922052L359.17792 660.888227z m33.010161-43.956536L787.796903 91.505706l146.236725 145.039465L592.814604 574.685526z m0 0" fill="#34a853" p-id="44557"></path><path d="M157.867247 1023.828963A157.867247 157.867247 0 0 1 0 866.30379V190.878264a157.867247 157.867247 0 0 1 157.867247-157.525173h514.479611l-78.848105 78.677068H191.732594a112.884489 112.884489 0 0 0-112.884489 112.713452v607.865869a112.884489 112.884489 0 0 0 112.884489 112.542415h609.576241a112.884489 112.884489 0 0 0 112.884489-112.542415V432.040581l78.848105-78.677068v513.111314a157.867247 157.867247 0 0 1-158.038285 157.525173zM828.503734 51.311987L869.210565 10.605156A36.430903 36.430903 0 0 1 894.524057 0.000855a30.444605 30.444605 0 0 1 21.550675 8.722893l101.59604 100.569817a29.760456 29.760456 0 0 1 8.551855 21.208601 35.575718 35.575718 0 0 1-10.775337 24.971417L974.911496 195.83834z m0 0" fill="#34a853" p-id="44558"></path></svg>