<?xml version="1.0" standalone="no"?><!DOCTYPE svg PUBLIC "-//W3C//DTD SVG 1.1//EN" "http://www.w3.org/Graphics/SVG/1.1/DTD/svg11.dtd"><svg t="1689904072174" class="icon" viewBox="0 0 1024 1024" version="1.1" xmlns="http://www.w3.org/2000/svg" p-id="22930" xmlns:xlink="http://www.w3.org/1999/xlink" width="128" height="128"><path d="M512 565.45c-138.29 0-250.79-112.5-250.79-250.79S373.71 63.87 512 63.87c138.27 0 250.79 112.5 250.79 250.79S650.27 565.45 512 565.45z m0-429.93c-98.77 0-179.14 80.37-179.14 179.14S413.23 493.8 512 493.8s179.14-80.37 179.14-179.14S610.77 135.52 512 135.52z" fill="#34a853" p-id="22931"></path><path d="M941.93 959.56H82.07v-35.83C82.07 686.65 274.94 493.8 512 493.8c237.08 0 429.93 192.85 429.93 429.93v35.83zM155.51 887.9h712.98C850.47 707.12 697.47 565.45 512 565.45c-185.45 0-338.46 141.67-356.49 322.45z" fill="#34a853" p-id="22932"></path></svg>