<?xml version="1.0" standalone="no"?><!DOCTYPE svg PUBLIC "-//W3C//DTD SVG 1.1//EN" "http://www.w3.org/Graphics/SVG/1.1/DTD/svg11.dtd"><svg t="1689904359177" class="icon" viewBox="0 0 1024 1024" version="1.1" xmlns="http://www.w3.org/2000/svg" p-id="36650" xmlns:xlink="http://www.w3.org/1999/xlink" width="128" height="128"><path d="M503.232 32C261.024 32 64 229.056 64 471.232c0 242.176 197.024 439.232 439.232 439.232s439.264-197.056 439.264-439.232C942.464 229.056 745.408 32 503.232 32zM503.232 880.16c-225.504 0-408.928-183.424-408.928-408.928 0-225.504 183.424-408.928 408.928-408.928s408.928 183.424 408.928 408.928C912.16 696.704 728.704 880.16 503.232 880.16z" p-id="36651" fill="#34a853"></path><path d="M720.096 450.176c26.944-20.608 44.608-52.736 44.608-89.184 0-62.08-50.528-112.64-112.672-112.64-41.696 0-77.76 23.04-97.216 56.8-20.288-49.888-69.088-85.184-126.144-85.184-75.2 0-136.32 61.152-136.32 136.288 0 46.24 23.264 87.04 58.528 111.68-67.584 14.72-105.888 60.192-105.888 130.656 0 86.56 127.552 131.456 195.84 136.288 12.288 0.864 25.056 1.376 37.952 1.376 45.76 0 106.752-6.208 137.792-35.808 11.872-11.36 19.2-24.672 22.016-39.488 3.904 0.672 7.52 1.76 11.968 1.76 5.632 0 12-0.576 19.232-1.856 100.64-17.6 121.376-77.92 121.088-125.408C790.688 503.872 766.336 467.424 720.096 450.176zM652.032 278.656c45.408 0 82.368 36.928 82.368 82.336 0 38.048-26.048 69.824-61.184 79.264-4.896-0.384-9.824-0.736-14.592-0.736-8.736 0-16.544 0.832-23.84 1.984-37.152-8-65.088-40.992-65.088-80.48C569.696 315.584 606.624 278.656 652.032 278.656zM591.712 455.808c-7.36 4.192-12.352 8.16-14.784 10.368-11.36 10.208-24.064 24-30.816 38.624-14.112-9.728-32.384-19.872-55.36-27.904 27.104-14.016 48.992-36.512 61.728-64.384C561.632 430.176 575.04 445.152 591.712 455.808zM322.624 356.256c0-58.464 47.552-106.016 106.016-106.016 58.432 0 105.984 47.552 105.984 106.016s-47.552 106.016-105.984 106.016C370.176 462.304 322.624 414.72 322.624 356.256zM595.584 678.528c-18.208 17.44-60.8 27.424-116.8 27.424-12.128 0-24.192-0.48-35.808-1.312-60.192-4.224-167.68-43.328-167.68-106.048 0-70.336 42.496-106.016 126.24-106.016 85.44 0 133.952 39.264 150.816 56.128 7.52 7.52 14.208 15.008 20.384 22.368 10.016 12.032 18.048 23.584 24.064 34.528 0.864 1.536 1.664 3.072 2.432 4.608 2.304 4.608 4.32 9.056 5.856 13.376 0.224 0.64 0.576 1.312 0.736 1.952 1.696 4.992 2.72 9.76 3.296 14.304 0.352 2.528 0.672 5.088 0.672 7.456C609.6 659.36 604.96 669.568 595.584 678.528zM664.608 631.04c-5.28 0.896-9.92 1.344-14.016 1.344-5.664 0-9.472-0.864-12.16-2.016-1.12-6.016-2.912-11.968-5.088-17.92-0.48-1.28-1.12-2.624-1.632-3.904-1.952-4.832-4.096-9.632-6.592-14.336-0.896-1.76-1.92-3.488-2.912-5.248-2.816-4.96-5.824-9.824-9.024-14.56-0.864-1.28-1.664-2.528-2.56-3.776-5.088-7.264-10.496-14.144-16.096-20.736-6.368-8.768-13.536-16.576-22.912-25.632-0.096-5.92 7.84-19.552 25.6-35.52 2.72-2.432 15.04-12.32 38.208-16.704 5.472 0.832 10.944 1.696 16.64 1.696 7.68 0 15.168-0.8 22.4-2.272 5.248 0.544 10.272 0.544 15.712 1.568 51.456 9.984 70.304 42.912 70.432 62.624C760.896 588.48 729.536 619.648 664.608 631.04z" p-id="36652" fill="#34a853"></path></svg>