<?xml version="1.0" standalone="no"?><!DOCTYPE svg PUBLIC "-//W3C//DTD SVG 1.1//EN" "http://www.w3.org/Graphics/SVG/1.1/DTD/svg11.dtd"><svg t="1689904115038" class="icon" viewBox="0 0 1024 1024" version="1.1" xmlns="http://www.w3.org/2000/svg" p-id="24915" xmlns:xlink="http://www.w3.org/1999/xlink" width="128" height="128"><path d="M918.795922 356.854687c-21.798121-51.476314-52.909055-97.631021-92.514092-137.236058-39.605037-39.605037-85.862083-70.818309-137.236058-92.514092C635.727364 104.590046 579.236458 93.128123 520.903458 93.128123s-114.823906 11.461923-168.142315 33.976414c-51.476314 21.798121-97.631021 52.909055-137.236058 92.514092s-70.818309 85.862083-92.514092 137.236058C100.496502 410.173096 89.034579 466.664002 89.034579 524.997002s11.461923 114.823906 33.976414 168.142315c21.798121 51.476314 52.909055 97.631021 92.514092 137.236058 39.605037 39.605037 85.862083 70.818309 137.236058 92.514092 53.21607 22.514491 109.809314 33.976414 168.142315 33.976414s114.823906-11.461923 168.142315-33.976414c51.476314-21.798121 97.631021-52.909055 137.236058-92.514092 39.605037-39.605037 70.818309-85.862083 92.514092-137.236058 22.514491-53.21607 33.976414-109.809314 33.976414-168.142315S941.310414 410.173096 918.795922 356.854687zM520.903458 911.836898c-213.273636 0-386.839896-173.56626-386.839896-386.839896s173.56626-386.839896 386.839896-386.839896 386.839896 173.56626 386.839896 386.839896S734.177094 911.836898 520.903458 911.836898z" p-id="24916" fill="#34a853"></path><path d="M711.662602 575.552269l-0.409354-0.102339-78.80072-14.736758c-14.532081-2.660804-29.678193 1.739756-40.423746 11.768939l-24.970618 23.435539c-22.719168-7.573056-82.996602-35.102139-124.443734-121.885269l28.961823-33.669398c10.131521-11.768939 13.611033-27.73376 9.108135-42.572856l-24.76594-83.815311-0.307016-0.921047c-0.921047-2.558465-9.415151-25.175295-33.976414-34.181091-19.751349-7.26604-42.675195-3.274835-68.055167 11.6666l-0.409354 0.204677c-2.660804 1.637418-26.198681 16.885868-43.084549 47.792125-15.657805 28.654807-28.040776 76.446932 1.535079 141.124925 2.353788 6.447332 16.06716 40.628423 50.043574 85.555067 33.56706 44.414951 94.663202 108.785928 195.159704 163.434739l1.023386 0.511693c2.353788 1.125725 41.651809 19.239656 86.169099 19.239656 18.625625 0 38.274635-3.172497 56.388567-12.178293 32.236658-15.862483 53.318409-45.95003 62.835898-89.443934l0.204677-1.023386c0.409354-2.456126 2.149111-15.35079-3.172497-30.087547C753.109734 595.303618 735.814511 580.976214 711.662602 575.552269zM723.124525 639.206876c-6.856686 30.496902-20.160704 50.35059-40.628423 60.482111-41.754148 20.672397-101.008195-4.605237-106.739157-7.163702-92.821107-50.555267-149.209674-109.502299-180.218269-150.130722-33.669398-44.107935-45.540676-76.753948-45.643014-77.060963l-0.307016-0.921047-0.409354-0.921047c-18.011593-39.195683-19.341995-74.093144-3.888867-103.668999 11.154907-21.388767 27.73376-32.85069 29.473516-34.078753 13.611033-7.982411 25.175295-10.95023 32.543674-8.391765 6.037977 2.046772 9.005797 7.880072 9.722167 9.415151l24.458925 82.791925c0.409354 1.535079 0.102339 3.070158-0.921047 4.298221L409.968419 449.26644c-9.51749 11.052568-11.6666 26.812712-5.526284 40.014391 21.695783 46.257046 50.555267 83.508295 85.964421 110.8327 29.268839 22.61683 55.672197 32.441335 68.771537 36.330202 11.461923 3.377174 24.04957 0.409354 32.85069-7.777733l27.938437-26.198681c1.330402-1.228063 3.172497-1.739756 4.912253-1.43274l77.982011 14.532081c14.429742 3.377174 17.4999 10.540875 18.420947 12.997002C723.329202 633.168899 723.226864 637.774136 723.124525 639.206876z" p-id="24917" fill="#34a853"></path></svg>