<?xml version="1.0" standalone="no"?><!DOCTYPE svg PUBLIC "-//W3C//DTD SVG 1.1//EN" "http://www.w3.org/Graphics/SVG/1.1/DTD/svg11.dtd"><svg t="1686562905592" class="icon" viewBox="0 0 1024 1024" version="1.1" xmlns="http://www.w3.org/2000/svg" p-id="3850" xmlns:xlink="http://www.w3.org/1999/xlink" width="200" height="200"><path d="M887.069916 116.414248V59.742932c0-32.943082-27.081415-59.742932-60.408449-59.742932H261.868066c-33.275841 0-60.408449 26.79985-60.408448 59.742932v57.695188h-0.63992C122.570279 120.714511 84.942982 128.87989 84.968579 192.103987v160.747907c0 51.884714 42.669866 86.926734 95.11771 86.926734h286.940133l0.511936 0.051193c24.16338 0 35.553956 19.453568 35.553955 43.36098v126.064242H468.741407a25.52001 25.52001 0 0 0-25.647994 25.366429v361.810774c0 14.027047 11.467367 27.43977 25.647994 27.43977h135.304687c14.180627 0 28.770804-14.436595 28.770804-28.463642V634.621472a25.52001 25.52001 0 0 0-25.647994-25.366429h-37.243345v-139.374578c0-51.526359-42.08114-93.479515-94.042644-94.068242-0.358355 0-0.71671-0.102387-1.075066-0.102387H190.427397c-24.137783 0-40.698913-19.453568-40.698913-43.335383v-130.031746c0-23.907412 26.902237-20.810199 51.065617-20.810199h0.665517v56.64572c0 32.968679 16.740307 62.840145 50.041744 62.840145h585.526809c33.301437 0 50.067342-29.871466 50.067342-62.840145V180.508636h22.422797c14.180627 0 26.697463-18.532083 26.697463-32.55913s-12.542432-31.535258-26.697463-31.535258h-22.448394zM568.056993 960.827097h-63.300888V672.299963h63.300888v288.527134zM266.219523 227.939508v-154.860643c0-4.965779 4.095488-9.010074 9.086864-9.010074H813.274341c4.991376 0 9.061267 4.044294 9.061267 8.984477v154.88624c0 4.965779-4.069891 8.984477-9.061267 8.984477H275.306387a9.035671 9.035671 0 0 1-9.086864-8.958881z" fill="#38BFD4" p-id="3851"></path></svg>