<?xml version="1.0" standalone="no"?><!DOCTYPE svg PUBLIC "-//W3C//DTD SVG 1.1//EN" "http://www.w3.org/Graphics/SVG/1.1/DTD/svg11.dtd"><svg t="1690186295800" class="icon" viewBox="0 0 1024 1024" version="1.1" xmlns="http://www.w3.org/2000/svg" p-id="95135" xmlns:xlink="http://www.w3.org/1999/xlink" width="128" height="128"><path d="M512 0C229.7 0 0 229.7 0 512s229.7 512 512 512 512-229.7 512-512S794.3 0 512 0z m0 979.5C254.2 979.5 44.5 769.8 44.5 512S254.2 44.5 512 44.5 979.5 254.2 979.5 512 769.8 979.5 512 979.5z" fill="" p-id="117445"></path><path d="M767.8 709.7c-13.5-83.6-78-150-158.9-180.1 35.1-28.2 57.5-71.4 57.5-119.8 0-84.8-68.8-153.6-153.6-153.6S359.2 325 359.2 409.8c0 48.6 22.6 91.9 57.8 120.1-81.5 30.7-146.3 98.7-159.5 182.1-0.4 1.5-0.6 3.2-0.7 4.8v1.3c0 14.1 11.5 25.6 25.6 25.6 14.1 0 25.6-11.5 25.6-25.6V717h0.1c13.6-93.1 109.3-153.6 204.8-153.6 95.4 0 189.8 56.2 204.8 153.6 0 14.1 11.5 25.6 25.6 25.6s25.6-11.5 25.6-25.6c-0.1-2.5-0.4-4.9-1.1-7.3zM410.4 409.8c0-56.6 45.8-102.4 102.4-102.4 56.6 0 102.4 45.8 102.4 102.4 0 56.6-45.8 102.4-102.4 102.4-56.5 0-102.4-45.8-102.4-102.4z" fill="#34a853" p-id="95137" data-spm-anchor-id="a313x.7781069.0.i104" class="selected"></path></svg>