<?xml version="1.0" standalone="no"?><!DOCTYPE svg PUBLIC "-//W3C//DTD SVG 1.1//EN" "http://www.w3.org/Graphics/SVG/1.1/DTD/svg11.dtd"><svg t="1690186091122" class="icon" viewBox="0 0 1024 1024" version="1.1" xmlns="http://www.w3.org/2000/svg" p-id="86749" xmlns:xlink="http://www.w3.org/1999/xlink" width="128" height="128"><path d="M512 0C229.7 0 0 229.7 0 512s229.7 512 512 512 512-229.7 512-512S794.3 0 512 0z m0 979.5C254.2 979.5 44.5 769.8 44.5 512S254.2 44.5 512 44.5 979.5 254.2 979.5 512 769.8 979.5 512 979.5z" fill="" p-id="117445"></path><path d="M762.06 368.96h-366.9c-17.4 0-31.5-14.1-31.5-31.5s14.1-31.5 31.5-31.5h366.9c17.4 0 31.5 14.1 31.5 31.5s-14.1 31.5-31.5 31.5zM250.47 298.97c-21.26 0-38.49 17.23-38.49 38.49s17.23 38.49 38.49 38.49 38.49-17.23 38.49-38.49c0.01-21.25-17.23-38.49-38.49-38.49zM762.06 545.61h-366.9c-17.4 0-31.5-14.1-31.5-31.5s14.1-31.5 31.5-31.5h366.9c17.4 0 31.5 14.1 31.5 31.5s-14.1 31.5-31.5 31.5zM250.47 475.62c-21.26 0-38.49 17.23-38.49 38.49s17.23 38.49 38.49 38.49 38.49-17.23 38.49-38.49-17.23-38.49-38.49-38.49zM762.06 712.93h-366.9c-17.4 0-31.5-14.1-31.5-31.5s14.1-31.5 31.5-31.5h366.9c17.4 0 31.5 14.1 31.5 31.5s-14.1 31.5-31.5 31.5zM250.47 642.94c-21.26 0-38.49 17.23-38.49 38.49s17.23 38.49 38.49 38.49 38.49-17.23 38.49-38.49-17.23-38.49-38.49-38.49z" p-id="86751" data-spm-anchor-id="a313x.7781069.0.i96" class="selected" fill="#34a853"></path></svg>