<?xml version="1.0" standalone="no"?><!DOCTYPE svg PUBLIC "-//W3C//DTD SVG 1.1//EN" "http://www.w3.org/Graphics/SVG/1.1/DTD/svg11.dtd"><svg t="1690186811706" class="icon" viewBox="0 0 1024 1024" version="1.1" xmlns="http://www.w3.org/2000/svg" p-id="116261" xmlns:xlink="http://www.w3.org/1999/xlink" width="128" height="128"><path d="M512 0C229.7 0 0 229.7 0 512s229.7 512 512 512 512-229.7 512-512S794.3 0 512 0z m0 979.5C254.2 979.5 44.5 769.8 44.5 512S254.2 44.5 512 44.5 979.5 254.2 979.5 512 769.8 979.5 512 979.5z" fill="" p-id="116262"></path><path d="M795.4432 315.81677037c21.9666963 53.03561482 11.52948148 116.26571852-31.55437037 159.34957037-47.45291852 47.45291852-119.17842963 54.85605925-174.88402963 23.42305185L548.7122963 542.64414814l28.76302223 28.88438519 17.11217777-17.11217778c4.2477037-4.2477037 9.95176297-6.67496297 15.89854815-6.67496296s11.65084445 2.42725925 15.89854815 6.67496296l139.32468148 140.78103704c8.73813333 8.73813333 8.73813333 23.05896297 0 31.7970963l-63.5941926 63.59419258c-8.73813333 8.73813333-23.05896297 8.73813333-31.79709629 0l-139.32468149-140.78103703c-8.73813333-8.73813333-8.73813333-23.05896297 0-31.7970963l15.65582223-15.65582222-27.42802963-27.42802962L326.61807408 785.2487111c-17.59762963 17.59762963-46.11792592 17.59762963-63.5941926 0l-15.89854815-15.89854813c-17.59762963-17.59762963-17.59762963-45.99656297 0-63.5941926l219.5456-183.8648889-145.87828147-146.24237037h-45.99656296l-53.27834075-85.68225185 42.84112593-42.96248888 87.62405925 53.64242963 0.60681482 45.02565925 147.456 148.06281482 42.96248888-35.92343704c-41.99158518-57.16195555-37.62251852-137.74696297 14.07810372-189.44758518 42.84112592-42.84112592 105.8285037-53.52106667 158.62139258-31.91845926L621.28734815 329.65214814l79.49274075 79.49274075 94.6631111-93.32811852zM299.79685926 728.08675555c-8.73813333-8.73813333-23.05896297-8.73813333-31.79709629 0-8.73813333 8.8594963-8.73813333 23.05896297 0 31.7970963 8.73813333 8.73813333 23.05896297 8.73813333 31.79709629 0 8.8594963-8.73813333 8.8594963-22.9376 0-31.7970963z m0 0" fill="#34a853" p-id="116263" data-spm-anchor-id="a313x.7781069.0.i119" class="selected"></path></svg>